<svg width="254" height="163" viewBox="0 0 254 163" fill="none" xmlns="http://www.w3.org/2000/svg">
<path fill-rule="evenodd" clip-rule="evenodd" d="M17.2787 36.8155L0.693736 73.5603L0.346551 110.74L0 147.921L18.079 148.408C32.1791 148.788 36.4462 149.269 37.4674 150.594C43.9129 158.957 69.3577 167.059 69.3577 160.748C69.3577 160.14 69.8769 159.964 70.5116 160.357C71.1463 160.751 71.6655 160.435 71.6655 159.654C71.6655 158.874 71.9734 158.544 72.3491 158.922C74.6182 161.197 79.5841 153.666 77.7073 150.794L75.7956 147.868L101.716 148.274C115.971 148.497 137.892 148.573 150.427 148.443L173.219 148.206V113.776V79.3462H176.104H178.989V113.776V148.206H187.644C195.846 148.206 196.3 148.07 196.313 145.602C196.322 143.942 203.471 134.395 216.027 119.274C236.789 94.2687 243.035 85.9049 241.843 84.705C241.445 84.304 231.295 83.8139 219.286 83.6159C198.573 83.2754 197.453 83.1417 197.453 81.0126C197.453 78.9916 196.594 78.7676 188.841 78.7676H180.229L175.382 71.5349C172.716 67.5566 169.037 62.3735 167.207 60.0171L163.88 55.7321L169.6 50.1797C182.148 38 181.452 19.1082 168.017 7.24928C160.652 0.74727 157.77 0.23933 127.534 0.112663L100.516 0V39.3838C100.516 64.8686 100.109 78.7676 99.3623 78.7676C97.7019 78.7676 97.8428 123.619 99.519 128.648C104.145 142.528 125.133 147.556 136.154 137.424C142.337 131.74 143.162 127.613 143.19 102.203L143.215 78.7676H136.868H130.521V69.4324V60.0973L133.68 60.4633C136.126 60.7472 138.213 62.7898 142.92 69.5095L149.001 78.189L148.704 103.65L148.407 129.11L145.203 134.577C135.368 151.357 105.348 151.17 95.8999 134.271C91.7496 126.847 90.6389 79.075 94.6197 79.2463C98.3169 79.4047 98.329 79.4398 80.2239 38.7887L63.0106 0.139397L48.4371 0.105025L33.8636 0.0712898L17.2787 36.8155ZM178.989 11.1403V22.2087L191.109 21.8452L203.228 21.4811L203.226 50.7386L203.223 79.9961L217.36 79.6714L231.496 79.3462L231.805 50.8576L232.113 22.3691L237.447 21.6358C240.382 21.2329 245.306 20.9026 248.391 20.9026H254V10.4872V0.0712898H216.494H178.989V11.1403ZM146.874 23.9757C153.335 29.8386 147.775 38.2623 137.445 38.2623H130.521V30.1613V22.0597H137.642C142.649 22.0597 145.391 22.6288 146.874 23.9757ZM51.3549 37.0153C53.0051 41.103 54.3558 44.488 54.3558 44.5377C54.3558 44.5873 51.558 44.6274 48.1388 44.6274H41.9225L44.2417 38.8408C45.5174 35.6583 46.823 32.1224 47.1429 30.9831C47.8849 28.3402 47.81 28.2327 51.3549 37.0153ZM65.5412 72.5068L68.0718 78.9713L48.5431 78.5805C26.7447 78.1438 28.2426 78.9299 32.0052 69.8997L33.6141 66.0373L48.3121 66.0398L63.0106 66.0424L65.5412 72.5068ZM57.1783 83.8782C68.6913 90.6443 74.6804 102.159 73.7137 115.667C70.6398 158.607 1.91238 156.521 1.89841 113.487C1.89333 97.2864 15.1816 79.8974 26.8913 80.7815C28.0078 80.8662 29.1515 80.5619 29.4327 80.1062C30.7338 77.9942 52.1121 80.9006 57.1783 83.8782ZM251.692 81.2526C251.692 83.418 245.7 92.1955 241.933 95.5487C241.218 96.1852 235.411 103.216 229.029 111.172C222.646 119.128 214.967 128.503 211.965 132.004C201.906 143.73 200.542 142.893 228.402 142.09L252.705 141.391L253.179 144.509C253.441 146.224 253.732 132.134 253.827 113.197C253.939 90.9002 253.593 78.7676 252.846 78.7676C252.211 78.7676 251.692 79.886 251.692 81.2526ZM26.0389 85.2384C0.575044 94.3056 0.89557 131.898 26.5118 140.651C47.48 147.816 68.1581 134.022 68.1924 112.846C68.2267 91.6933 46.9836 77.781 26.0389 85.2384ZM71.6655 150.535C67.4726 153.844 61.9469 155.155 57.5293 153.887C55.4665 153.296 52.4802 151.787 50.8934 150.535L48.0087 148.257H61.2798H74.5509L71.6655 150.535Z" fill="#E7FC0B"/>
</svg>
